<svg width="140" height="30" viewBox="0 0 140 30" fill="none" xmlns="http://www.w3.org/2000/svg">
<path d="M15 22.2222V16.1806L7.56696 11.1111L0 11.1111L15 22.2222Z" fill="#0F5EF7"/>
<path d="M15 7.77777L15 13.8194L22.433 18.8889L30 18.8889L15 7.77777Z" fill="#FF9E01"/>
<path d="M15 0V6.04166L7.56696 11.1111H0L15 0Z" fill="#0F5EF7"/>
<path d="M15 30L15 23.9583L22.433 18.8889L30 18.8889L15 30Z" fill="#FF9E01"/>
<path d="M47.2557 14.9815C47.0128 13.1726 45.5554 12.054 43.0753 12.054C40.5632 12.054 38.9077 13.2173 38.9141 15.1094C38.9077 16.5795 39.8345 17.532 41.7521 17.9155L43.4524 18.2543C44.3089 18.4268 44.6989 18.7401 44.7116 19.2322C44.6989 19.8139 44.066 20.2294 43.1136 20.2294C42.142 20.2294 41.4964 19.8139 41.3302 19.0149L38.652 19.1555C38.9077 21.0348 40.5057 22.1918 43.1072 22.1918C45.6513 22.1918 47.473 20.8942 47.4794 18.9574C47.473 17.5384 46.5462 16.6882 44.6413 16.2983L42.8643 15.9403C41.9503 15.7422 41.6115 15.429 41.6179 14.956C41.6115 14.3679 42.2763 13.9844 43.12 13.9844C44.066 13.9844 44.6285 14.5021 44.7628 15.1349L47.2557 14.9815Z" fill="#324552"/>
<path d="M53.6301 22.1918C56.2445 22.1918 57.8872 20.6577 58.0151 18.4013H55.4455C55.2857 19.4496 54.5953 20.0376 53.6621 20.0376C52.3901 20.0376 51.5655 18.9702 51.5655 17.0909C51.5655 15.2372 52.3965 14.1761 53.6621 14.1761C54.6593 14.1761 55.2985 14.8345 55.4455 15.8125H58.0151C57.9 13.5433 56.1806 12.054 53.6174 12.054C50.6387 12.054 48.7978 14.1186 48.7978 17.1293C48.7978 20.1144 50.6067 22.1918 53.6301 22.1918Z" fill="#324552"/>
<path d="M59.7585 22H62.4815V16.4453C62.4815 15.2372 63.3636 14.4063 64.5653 14.4063C64.9425 14.4063 65.4602 14.4702 65.7159 14.5533V12.1371C65.473 12.0795 65.1342 12.0412 64.8594 12.0412C63.7599 12.0412 62.8587 12.6804 62.5007 13.8949H62.3984V12.1818H59.7585V22Z" fill="#324552"/>
<path d="M67.1237 22H69.8468V12.1818H67.1237V22ZM68.4916 10.9162C69.3034 10.9162 69.9682 10.2962 69.9682 9.53551C69.9682 8.78125 69.3034 8.16122 68.4916 8.16122C67.6862 8.16122 67.0215 8.78125 67.0215 9.53551C67.0215 10.2962 67.6862 10.9162 68.4916 10.9162Z" fill="#324552"/>
<path d="M72.028 25.6818H74.7511V20.4276H74.8342C75.2113 21.2457 76.0359 22.1598 77.6211 22.1598C79.8583 22.1598 81.6033 20.3892 81.6033 17.1037C81.6033 13.7287 79.7816 12.054 77.6275 12.054C75.9847 12.054 75.1985 13.032 74.8342 13.831H74.7127V12.1818H72.028V25.6818ZM74.6935 17.0909C74.6935 15.3395 75.435 14.2209 76.7582 14.2209C78.1069 14.2209 78.8228 15.3906 78.8228 17.0909C78.8228 18.804 78.0941 19.9929 76.7582 19.9929C75.4478 19.9929 74.6935 18.8423 74.6935 17.0909Z" fill="#324552"/>
<path d="M88.641 12.1818H86.7937V9.82955H84.0707V12.1818H82.7283V14.2273H84.0707V19.3409C84.0579 21.2649 85.3682 22.2173 87.3434 22.1342C88.0465 22.1087 88.5451 21.968 88.8199 21.8786L88.3917 19.8523C88.2574 19.8778 87.9698 19.9418 87.7141 19.9418C87.1708 19.9418 86.7937 19.7372 86.7937 18.983V14.2273H88.641V12.1818Z" fill="#324552"/>
<path d="M94.7454 22.1918C97.3597 22.1918 99.0025 20.6577 99.1303 18.4013H96.5607C96.4009 19.4496 95.7106 20.0376 94.7773 20.0376C93.5053 20.0376 92.6807 18.9702 92.6807 17.0909C92.6807 15.2372 93.5117 14.1761 94.7773 14.1761C95.7745 14.1761 96.4137 14.8345 96.5607 15.8125H99.1303C99.0153 13.5433 97.2958 12.054 94.7326 12.054C91.7539 12.054 89.913 14.1186 89.913 17.1293C89.913 20.1144 91.7219 22.1918 94.7454 22.1918Z" fill="#324552"/>
<path d="M103.673 22.1854C105.124 22.1854 106.064 21.5526 106.543 20.6385H106.62V22H109.203V15.3778C109.203 13.0384 107.221 12.054 105.035 12.054C102.683 12.054 101.136 13.179 100.759 14.9688L103.277 15.1733C103.463 14.5213 104.044 14.0419 105.022 14.0419C105.949 14.0419 106.48 14.5085 106.48 15.3139V15.3523C106.48 15.9851 105.808 16.0682 104.102 16.2344C102.159 16.4134 100.414 17.0653 100.414 19.2578C100.414 21.201 101.801 22.1854 103.673 22.1854ZM104.453 20.3061C103.616 20.3061 103.015 19.9162 103.015 19.1683C103.015 18.4013 103.648 18.0242 104.607 17.8899C105.201 17.8068 106.173 17.6662 106.499 17.4489V18.4908C106.499 19.5199 105.649 20.3061 104.453 20.3061Z" fill="#324552"/>
<path d="M119.484 14.9815C119.241 13.1726 117.784 12.054 115.304 12.054C112.792 12.054 111.136 13.2173 111.143 15.1094C111.136 16.5795 112.063 17.532 113.981 17.9155L115.681 18.2543C116.537 18.4268 116.927 18.7401 116.94 19.2322C116.927 19.8139 116.295 20.2294 115.342 20.2294C114.371 20.2294 113.725 19.8139 113.559 19.0149L110.88 19.1555C111.136 21.0348 112.734 22.1918 115.336 22.1918C117.88 22.1918 119.702 20.8942 119.708 18.9574C119.702 17.5384 118.775 16.6882 116.87 16.2983L115.093 15.9403C114.179 15.7422 113.84 15.429 113.846 14.956C113.84 14.3679 114.505 13.9844 115.349 13.9844C116.295 13.9844 116.857 14.5021 116.991 15.1349L119.484 14.9815Z" fill="#324552"/>
<path d="M125.897 22.1918C128.326 22.1918 129.962 21.0092 130.346 19.1875L127.827 19.0213C127.553 19.7692 126.849 20.1591 125.942 20.1591C124.58 20.1591 123.717 19.2578 123.717 17.794V17.7876H130.403V17.0398C130.403 13.7031 128.384 12.054 125.788 12.054C122.899 12.054 121.026 14.1058 121.026 17.1357C121.026 20.2486 122.874 22.1918 125.897 22.1918ZM123.717 16.1001C123.775 14.9815 124.625 14.0867 125.833 14.0867C127.016 14.0867 127.834 14.9304 127.84 16.1001H123.717Z" fill="#324552"/>
</svg>
